<svg xmlns="http://www.w3.org/2000/svg" width="48.958" height="49.906" viewBox="0 0 48.958 49.906">
  <path id="Icon_ionic-logo-google" data-name="Icon ionic-logo-google" d="M52.327,24.489l-.252-1.068H28.855v9.828H42.727c-1.44,6.84-8.124,10.44-13.584,10.44a16.244,16.244,0,0,1-10.932-4.356,15.606,15.606,0,0,1-4.656-11.016,16.1,16.1,0,0,1,4.572-11,15.551,15.551,0,0,1,10.86-4.248,14.165,14.165,0,0,1,9.24,3.6l6.984-6.948A24.71,24.71,0,0,0,28.759,3.382h0a25.432,25.432,0,0,0-18,7.32,25.33,25.33,0,0,0-7.1,17.627,25.075,25.075,0,0,0,6.828,17.339,26.048,26.048,0,0,0,18.779,7.62A23.165,23.165,0,0,0,46.135,46.2a24.911,24.911,0,0,0,6.48-17.255A28.733,28.733,0,0,0,52.327,24.489Z" transform="translate(-3.656 -3.382)" fill="#db3236"/>
</svg>
