<svg xmlns="http://www.w3.org/2000/svg" width="41.602" height="49.932" viewBox="0 0 41.602 49.932">
  <g id="Icon_ionic-logo-apple" data-name="Icon ionic-logo-apple" transform="translate(-6.748 -4.5)">
    <path id="Path_4" data-name="Path 4" d="M37.639,10.821c-4.368,0-6.214,2.145-9.256,2.145-3.12,0-5.5-2.132-9.282-2.132-3.7,0-7.657,2.327-10.166,6.292-3.523,5.59-2.925,16.12,2.782,25.09,2.041,3.211,4.771,6.812,8.346,6.851h.065c3.107,0,4.03-2.093,8.307-2.119H28.5c4.212,0,5.057,2.106,8.151,2.106h.065c3.575-.039,6.448-4.03,8.489-7.228a35.557,35.557,0,0,0,3.146-6.058C40.1,32.544,38.77,20.506,46.934,15.891a12.224,12.224,0,0,0-9.295-5.07Z" transform="translate(0 5.366)" fill="#555"/>
    <path id="Path_5" data-name="Path 5" d="M27.5,4.5a11.368,11.368,0,0,0-7.41,4.108c-1.612,2.015-2.938,5-2.418,7.9h.208A9.65,9.65,0,0,0,25.135,12.6,11.073,11.073,0,0,0,27.5,4.5Z" transform="translate(9.176 0)" fill="#555"/>
  </g>
</svg>
